
	<svg xmlns="http://www.w3.org/2000/svg" xmlns:xlink="http://www.w3.org/1999/xlink" version="1.1" width="512" height="512" viewBox="0 0 100 100">


		<defs>
			<linearGradient id="Gradient_1" gradientUnits="userSpaceOnUse" x1="50" y1="53" x2="50" y2="0" spreadMethod="pad">
<stop offset="0%" stop-color="#FFFFFF" stop-opacity="0.1"/>

<stop offset="100%" stop-color="#FFFFFF" stop-opacity="0.4"/>
</linearGradient><linearGradient id="Gradient_2" gradientUnits="userSpaceOnUse" x1="100" y1="50" x2="0" y2="50" spreadMethod="pad">
<stop offset="0%" stop-color="#FFFFFF" stop-opacity="0.1"/>

<stop offset="100%" stop-color="#FFFFFF" stop-opacity="0.4"/>
</linearGradient><linearGradient id="Gradient_3" gradientUnits="userSpaceOnUse" x1="0" y1="50" x2="100" y2="50" spreadMethod="pad">
<stop offset="0%" stop-color="#FFFFFF" stop-opacity="0.1"/>

<stop offset="100%" stop-color="#FFFFFF" stop-opacity="0.4"/>
</linearGradient><g id="background">
<path fill="url(#background-gradient)" stroke="none" d=" M 0 0 L 0 100 100 100 100 0 0 0 Z"/>
</g><mask id="mask">
<path fill="#FFFFFF" stroke="none" d=" M 0 0 L 0 100 100 100 100 0 0 0 Z"/>
</mask><g id="gloss-top">
<path fill="url(#Gradient_1)" stroke="none" d=" M 100 53.1 L 100 0 0 0 0 53.1 100 53.1 Z"/>
</g><g id="gloss-right">
<path fill="url(#Gradient_2)" stroke="none" d=" M 100 100 L 100 0 0 0 100 100 Z"/>
</g><g id="gloss-left">
<path fill="url(#Gradient_3)" stroke="none" d=" M 0 0 L 0 100 100 0 0 0 Z"/>
</g>
			
	<linearGradient id="background-gradient" x1="0" y1="0" y2="1" x2="0" >
		<stop stop-color="#000" offset="0%"/>
		<stop stop-color="#000" offset="100%"/>
	</linearGradient>

			
			
			<g transform="scale(2.0833333333333335)" id="picture"><path d="M0 33.3c0 1 .8 1.7 1.7 1.7H6c0 3.3 2.7 6 6 6s6-2.7 6-6h6.3c1 0 1.7-.8 1.7-1.7v-4.9H0v4.9zM12 32c1.7 0 3 1.3 3 3s-1.3 3-3 3-3-1.3-3-3c0-1.6 1.4-3 3-3zm36-8.6c0-.2-.1-.5-.2-.7l-7.4-11.1c-.2-.4-.7-.6-1.1-.6h-10c-.7 0-1.3.6-1.3 1.3v21.4c0 .7.6 1.3 1.3 1.3H32c0 3.3 2.7 6 6 6s6-2.7 6-6h2.7c.7 0 1.3-.6 1.3-1.3V23.4zm-14.1 1.3h4.7v1.2h-4.7v-1.2zM38 38c-1.7 0-3-1.3-3-3s1.3-3 3-3 3 1.3 3 3-1.4 3-3 3zm-4-15v-8h5l5.3 8H34zm-16.8-9.3c-.2-.2-.6-.2-.9 0L12.1 18c-.2.2-.6.2-.9 0l-1.5-1.5c-.2-.2-.6-.2-.9 0l-.4.4c-.2.2-.2.6 0 .9l2.7 2.7c.2.2.5.4.5.4.1 0 .3-.2.5-.4l5.4-5.4c.2-.2.2-.6 0-.9l-.3-.5z M24.3 7H1.7C.8 7 0 7.8 0 8.7v18.6h26V8.7c0-.9-.7-1.7-1.7-1.7zM13 24.7c-4.2 0-7.6-3.4-7.6-7.6 0-4.2 3.4-7.6 7.6-7.6 4.2 0 7.6 3.4 7.6 7.6 0 4.2-3.4 7.6-7.6 7.6z"/></g>
			
	<linearGradient id="picture-gradient" x1="0" y1="0" y2="1" x2="0" >
		<stop stop-color="#fff" offset="0%"/>
		<stop stop-color="#fff" offset="100%"/>
	</linearGradient>

		</defs>

		

			<use xlink:href="#background" fill="url(#background-gradient)" />

		

			<g mask="url(#mask)">
				<g transform="
				        translate(
                                50 50
)
                            translate(0 0)  scale(0.6500000000000001)  
                            translate(
                                -50 -50
)">
						<use xlink:href="#picture" fill="url(#picture-gradient)"  />
				</g>
			</g>

		



	</svg>
