
	<svg xmlns="http://www.w3.org/2000/svg" xmlns:xlink="http://www.w3.org/1999/xlink" version="1.1" width="512" height="512" viewBox="0 0 100 100">


		<defs>
			<linearGradient id="Gradient_1" gradientUnits="userSpaceOnUse" x1="50" y1="53" x2="50" y2="0" spreadMethod="pad">
<stop offset="0%" stop-color="#FFFFFF" stop-opacity="0.1"/>

<stop offset="100%" stop-color="#FFFFFF" stop-opacity="0.4"/>
</linearGradient><linearGradient id="Gradient_2" gradientUnits="userSpaceOnUse" x1="100" y1="50" x2="0" y2="50" spreadMethod="pad">
<stop offset="0%" stop-color="#FFFFFF" stop-opacity="0.1"/>

<stop offset="100%" stop-color="#FFFFFF" stop-opacity="0.4"/>
</linearGradient><linearGradient id="Gradient_3" gradientUnits="userSpaceOnUse" x1="0" y1="50" x2="100" y2="50" spreadMethod="pad">
<stop offset="0%" stop-color="#FFFFFF" stop-opacity="0.1"/>

<stop offset="100%" stop-color="#FFFFFF" stop-opacity="0.4"/>
</linearGradient><g id="background">
<path fill="url(#background-gradient)" stroke="none" d=" M 0 0 L 0 100 100 100 100 0 0 0 Z"/>
</g><mask id="mask">
<path fill="#FFFFFF" stroke="none" d=" M 0 0 L 0 100 100 100 100 0 0 0 Z"/>
</mask><g id="gloss-top">
<path fill="url(#Gradient_1)" stroke="none" d=" M 100 53.1 L 100 0 0 0 0 53.1 100 53.1 Z"/>
</g><g id="gloss-right">
<path fill="url(#Gradient_2)" stroke="none" d=" M 100 100 L 100 0 0 0 100 100 Z"/>
</g><g id="gloss-left">
<path fill="url(#Gradient_3)" stroke="none" d=" M 0 0 L 0 100 100 0 0 0 Z"/>
</g>
			
	<linearGradient id="background-gradient" x1="0" y1="0" y2="1" x2="0" >
		<stop stop-color="#007AFF" offset="0%"/>
		<stop stop-color="#007AFF" offset="0%"/>
	</linearGradient>

			
			
			<g transform="scale(0.9990010142293164) translate(0 -4.000003814697266)" id="picture"><path d="M2.2 17.6C0 19.1 0 19.3 0 47.6 0 74.7.1 76.1 2 78c1.5 1.5 3.3 2 7 2 4.3 0 5.2.3 5.9 2.2 1.8 4.6 5.9 7.3 11.1 7.3 5.2 0 9.3-2.7 11.1-7.3.8-2.1 1.3-2.2 12.9-2.2h12V50c0-28.7-.1-30.1-2-32-1.9-1.9-3.3-2-28.8-2-22.6 0-27.1.2-29 1.6zM47.5 31c.7 1.1-2.4 5.1-12.7 16.3l-6.3 6.8-6.4-5.9c-4.1-3.6-6.2-6.3-5.7-7 1.1-1.9 2-1.5 7.1 3l4.7 4.2 8.5-9.2c8.5-9.2 9.6-10.1 10.8-8.2zm-16 41.5C36.5 77.4 33 86 26 86c-4.1 0-8-3.9-8-8 0-1.9.9-4 2.5-5.5C22 70.9 24.1 70 26 70s4 .9 5.5 2.5zM66 54.9c0 21.2.2 25 1.5 25.5.8.3 1.5 1.1 1.5 1.9 0 .7 1.4 2.6 3.1 4.3 5.8 5.5 16.1 3.2 19-4.4.5-1.3 1.7-2.2 2.9-2.2 1.1 0 2.9-.9 4.1-2.1 1.9-1.9 2-3 1.7-14.9l-.3-12.8-4-5.8c-2.2-3.2-5.8-7.8-8.1-10.1L83.3 30H66v24.9zm18.2-18.2C87.8 40.6 96 52 96 53.1c0 .6-4.2.8-9.7.7l-9.8-.3-.3-9.8-.3-9.7h2.9c1.8 0 3.8 1 5.4 2.7zm1.3 35.8C90.5 77.4 87 86 80 86c-4.1 0-8-3.9-8-8s3.9-8 8-8c1.9 0 4 .9 5.5 2.5z"/></g>
			
	<linearGradient id="picture-gradient" x1="0" y1="0" y2="1" x2="0" >
		<stop stop-color="#495ce7" offset="0%"/>
		<stop stop-color="#FFFFFF" offset="0%"/>
	</linearGradient>

		</defs>

		

			<use xlink:href="#background" fill="url(#background-gradient)" />

		

			<g mask="url(#mask)">
				<g transform="
				        translate(
                                50 50
)
                            translate(0 0)  scale(0.6500000000000001)  
                            translate(
                                -50 -50
)">
						<use xlink:href="#picture" fill="url(#picture-gradient)"  />
				</g>
			</g>

		



	</svg>
